<svg width="1200" height="420" viewBox="0 0 1200 420" fill="none" xmlns="http://www.w3.org/2000/svg" role="img" aria-labelledby="title desc">
  <title id="title">Muhammad Taqi Raza - Computer Vision Engineer</title>
  <desc id="desc">Profile banner for computer vision, video AI, 3D vision, OCR, and robotics perception.</desc>
  <defs>
    <linearGradient id="bg" x1="0" y1="0" x2="1200" y2="420" gradientUnits="userSpaceOnUse">
      <stop offset="0" stop-color="#050816"/>
      <stop offset="0.48" stop-color="#082f49"/>
      <stop offset="1" stop-color="#0f766e"/>
    </linearGradient>
    <linearGradient id="line" x1="92" y1="331" x2="1072" y2="331" gradientUnits="userSpaceOnUse">
      <stop stop-color="#38bdf8"/>
      <stop offset="0.5" stop-color="#22c55e"/>
      <stop offset="1" stop-color="#60a5fa"/>
    </linearGradient>
    <radialGradient id="glow" cx="0" cy="0" r="1" gradientUnits="userSpaceOnUse" gradientTransform="translate(934 165) rotate(90) scale(212)">
      <stop stop-color="#38bdf8" stop-opacity="0.35"/>
      <stop offset="1" stop-color="#38bdf8" stop-opacity="0"/>
    </radialGradient>
    <filter id="softShadow" x="-20%" y="-20%" width="140%" height="140%">
      <feDropShadow dx="0" dy="18" stdDeviation="22" flood-color="#020617" flood-opacity="0.35"/>
    </filter>
  </defs>

  <rect width="1200" height="420" rx="34" fill="url(#bg)"/>
  <rect x="1" y="1" width="1198" height="418" rx="33" stroke="#1e293b" stroke-opacity="0.9"/>
  <path d="M0 318C154 283 277 356 446 317C610 279 743 271 900 300C1032 324 1105 286 1200 252V420H0V318Z" fill="#020617" fill-opacity="0.52"/>
  <circle cx="934" cy="165" r="230" fill="url(#glow)"/>

  <g opacity="0.18">
    <path d="M745 85H1085" stroke="#94a3b8"/>
    <path d="M745 135H1085" stroke="#94a3b8"/>
    <path d="M745 185H1085" stroke="#94a3b8"/>
    <path d="M745 235H1085" stroke="#94a3b8"/>
    <path d="M795 55V270" stroke="#94a3b8"/>
    <path d="M870 55V270" stroke="#94a3b8"/>
    <path d="M945 55V270" stroke="#94a3b8"/>
    <path d="M1020 55V270" stroke="#94a3b8"/>
  </g>

  <g filter="url(#softShadow)">
    <rect x="78" y="70" width="628" height="220" rx="28" fill="#020617" fill-opacity="0.48" stroke="#1e293b"/>
    <text x="112" y="132" fill="#e5f3ff" font-family="Inter, Segoe UI, Arial, sans-serif" font-size="48" font-weight="800" letter-spacing="0">Muhammad Taqi Raza</text>
    <text x="114" y="174" fill="#7dd3fc" font-family="Inter, Segoe UI, Arial, sans-serif" font-size="20" font-weight="700" letter-spacing="3">COMPUTER VISION ENGINEER</text>
    <text x="114" y="220" fill="#cbd5e1" font-family="Inter, Segoe UI, Arial, sans-serif" font-size="22" font-weight="500">Video AI | 3D Vision | OCR | Robotics Perception</text>
    <text x="114" y="256" fill="#94a3b8" font-family="Inter, Segoe UI, Arial, sans-serif" font-size="17" font-weight="500">Depth, motion, geometry, recognition, temporal consistency, and safe perception systems.</text>
  </g>

  <g>
    <circle cx="904" cy="143" r="86" stroke="#38bdf8" stroke-opacity="0.75" stroke-width="3"/>
    <circle cx="904" cy="143" r="48" stroke="#22c55e" stroke-opacity="0.8" stroke-width="3"/>
    <circle cx="904" cy="143" r="8" fill="#e0f2fe"/>
    <circle cx="1015" cy="95" r="10" fill="#38bdf8"/>
    <circle cx="1028" cy="210" r="10" fill="#22c55e"/>
    <circle cx="805" cy="224" r="10" fill="#60a5fa"/>
    <path d="M904 143L1015 95M904 143L1028 210M904 143L805 224" stroke="#cbd5e1" stroke-opacity="0.55" stroke-width="2"/>
  </g>

  <g font-family="Inter, Segoe UI, Arial, sans-serif" font-size="16" font-weight="700">
    <rect x="92" y="326" width="134" height="42" rx="21" fill="#0ea5e9" fill-opacity="0.92"/>
    <text x="124" y="353" fill="white">Video AI</text>
    <rect x="242" y="326" width="178" height="42" rx="21" fill="#14b8a6" fill-opacity="0.9"/>
    <text x="273" y="353" fill="white">3D / Geometry</text>
    <rect x="436" y="326" width="92" height="42" rx="21" fill="#8b5cf6" fill-opacity="0.92"/>
    <text x="462" y="353" fill="white">OCR</text>
    <rect x="544" y="326" width="230" height="42" rx="21" fill="#f97316" fill-opacity="0.92"/>
    <text x="572" y="353" fill="white">Dense Obstacle Avoidance</text>
    <rect x="790" y="326" width="174" height="42" rx="21" fill="#22c55e" fill-opacity="0.86"/>
    <text x="826" y="353" fill="white">Production ML</text>
  </g>

  <rect x="92" y="392" width="980" height="4" rx="2" fill="url(#line)"/>
</svg>
